<svg width="24" height="24" viewBox="0 0 24 24" fill="none" xmlns="http://www.w3.org/2000/svg">
<g clip-path="url(#clip0_123_177)">
<path fill-rule="evenodd" clip-rule="evenodd" d="M22.5 19.5H21V9C21 8.17157 20.3284 7.5 19.5 7.5H13.5V3C13.5004 2.44654 13.1959 1.93784 12.708 1.67662C12.22 1.41539 11.6279 1.44408 11.1675 1.75125L3.6675 6.75C3.24962 7.0288 2.99905 7.49828 3 8.00062V19.5H1.5C1.08579 19.5 0.75 19.8358 0.75 20.25C0.75 20.6642 1.08579 21 1.5 21H22.5C22.9142 21 23.25 20.6642 23.25 20.25C23.25 19.8358 22.9142 19.5 22.5 19.5ZM19.5 9V19.5H13.5V9H19.5ZM4.5 8.00062L12 3V19.5H4.5V8.00062ZM10.5 10.5V12C10.5 12.4142 10.1642 12.75 9.75 12.75C9.33579 12.75 9 12.4142 9 12V10.5C9 10.0858 9.33579 9.75 9.75 9.75C10.1642 9.75 10.5 10.0858 10.5 10.5ZM7.5 10.5V12C7.5 12.4142 7.16421 12.75 6.75 12.75C6.33579 12.75 6 12.4142 6 12V10.5C6 10.0858 6.33579 9.75 6.75 9.75C7.16421 9.75 7.5 10.0858 7.5 10.5ZM7.5 15.75V17.25C7.5 17.6642 7.16421 18 6.75 18C6.33579 18 6 17.6642 6 17.25V15.75C6 15.3358 6.33579 15 6.75 15C7.16421 15 7.5 15.3358 7.5 15.75ZM10.5 15.75V17.25C10.5 17.6642 10.1642 18 9.75 18C9.33579 18 9 17.6642 9 17.25V15.75C9 15.3358 9.33579 15 9.75 15C10.1642 15 10.5 15.3358 10.5 15.75Z" fill="#0D141C"/>
</g>
<defs>
<clipPath id="clip0_123_177">
<rect width="24" height="24" fill="white"/>
</clipPath>
</defs>
</svg>
