<svg width="20" height="20" viewBox="0 0 20 20" fill="none" xmlns="http://www.w3.org/2000/svg">
<g clip-path="url(#clip0_12_86)">
<path fill-rule="evenodd" clip-rule="evenodd" d="M5 8.20312V3.125C5 2.77982 4.72018 2.5 4.375 2.5C4.02982 2.5 3.75 2.77982 3.75 3.125V8.20312C2.6438 8.48636 1.8701 9.48312 1.8701 10.625C1.8701 11.7669 2.6438 12.7636 3.75 13.0469V16.875C3.75 17.2202 4.02982 17.5 4.375 17.5C4.72018 17.5 5 17.2202 5 16.875V13.0469C6.1062 12.7636 6.8799 11.7669 6.8799 10.625C6.8799 9.48312 6.1062 8.48636 5 8.20312ZM4.375 11.875C3.68464 11.875 3.125 11.3154 3.125 10.625C3.125 9.93464 3.68464 9.375 4.375 9.375C5.06536 9.375 5.625 9.93464 5.625 10.625C5.625 11.3154 5.06536 11.875 4.375 11.875ZM10.625 4.45312V3.125C10.625 2.77982 10.3452 2.5 10 2.5C9.65482 2.5 9.375 2.77982 9.375 3.125V4.45312C8.2688 4.73636 7.4951 5.73312 7.4951 6.875C7.4951 8.01688 8.2688 9.01364 9.375 9.29688V16.875C9.375 17.2202 9.65482 17.5 10 17.5C10.3452 17.5 10.625 17.2202 10.625 16.875V9.29688C11.7312 9.01364 12.5049 8.01688 12.5049 6.875C12.5049 5.73312 11.7312 4.73636 10.625 4.45312ZM10 8.125C9.30964 8.125 8.75 7.56536 8.75 6.875C8.75 6.18464 9.30964 5.625 10 5.625C10.6904 5.625 11.25 6.18464 11.25 6.875C11.25 7.56536 10.6904 8.125 10 8.125ZM18.125 13.125C18.1239 11.9851 17.3533 10.9897 16.25 10.7031V3.125C16.25 2.77982 15.9702 2.5 15.625 2.5C15.2798 2.5 15 2.77982 15 3.125V10.7031C13.8938 10.9864 13.1201 11.9831 13.1201 13.125C13.1201 14.2669 13.8938 15.2636 15 15.5469V16.875C15 17.2202 15.2798 17.5 15.625 17.5C15.9702 17.5 16.25 17.2202 16.25 16.875V15.5469C17.3533 15.2603 18.1239 14.2649 18.125 13.125ZM15.625 14.375C14.9346 14.375 14.375 13.8154 14.375 13.125C14.375 12.4346 14.9346 11.875 15.625 11.875C16.3154 11.875 16.875 12.4346 16.875 13.125C16.875 13.8154 16.3154 14.375 15.625 14.375Z" fill="#0D141C"/>
</g>
<defs>
<clipPath id="clip0_12_86">
<rect width="20" height="20" fill="white"/>
</clipPath>
</defs>
</svg>
