<svg width="20" height="20" viewBox="0 0 20 20" fill="none" xmlns="http://www.w3.org/2000/svg">
<g clip-path="url(#clip0_12_79)">
<path fill-rule="evenodd" clip-rule="evenodd" d="M19.0086 10.625L11.25 2.86641C11.0164 2.63092 10.6981 2.49894 10.3664 2.5H3.125C2.77982 2.5 2.5 2.77982 2.5 3.125V10.3664C2.49894 10.6981 2.63092 11.0164 2.86641 11.25L10.625 19.0086C10.8594 19.2431 11.1774 19.3748 11.509 19.3748C11.8406 19.3748 12.1585 19.2431 12.393 19.0086L19.0086 12.393C19.2431 12.1585 19.3748 11.8406 19.3748 11.509C19.3748 11.1774 19.2431 10.8594 19.0086 10.625ZM11.5086 18.125L3.75 10.3664V3.75H10.3664L18.125 11.5086L11.5086 18.125ZM7.5 6.5625C7.5 7.08027 7.08027 7.5 6.5625 7.5C6.04473 7.5 5.625 7.08027 5.625 6.5625C5.625 6.04473 6.04473 5.625 6.5625 5.625C7.08027 5.625 7.5 6.04473 7.5 6.5625Z" fill="#0D141C"/>
</g>
<defs>
<clipPath id="clip0_12_79">
<rect width="20" height="20" fill="white"/>
</clipPath>
</defs>
</svg>
